<svg width="45" height="33" viewBox="0 0 45 33" fill="none" xmlns="http://www.w3.org/2000/svg">
<path d="M42.8226 4.53076H2.17742C0.976754 4.53076 0 5.50752 0 6.70818V30.6598C0 31.8605 0.976754 32.8372 2.17742 32.8372H42.8226C44.0232 32.8372 45 31.8605 45 30.6598V6.70818C45 5.50752 44.0232 4.53076 42.8226 4.53076Z" fill="#FFD52C"/>
<path d="M24.6773 29.2083H20.3224V32.8373H24.6773V29.2083Z" fill="#E3001E"/>
<path d="M42.1166 27.0307V29.2081C42.1166 29.6089 41.7916 29.9339 41.3908 29.9339H3.64884C3.24801 29.9339 2.92303 29.6089 2.92303 29.2081V27.0307L7.258 24.8533L24.6774 25.5791L39.1935 24.8533L42.1166 27.0307Z" fill="#C1C9D7"/>
<path d="M3.94134 28.0328C9.90557 25.5706 16.6506 25.7205 22.5198 28.4823V2.35325C16.4571 -0.499623 9.45992 -0.5654 3.35407 2.15583C3.09133 2.27296 2.92303 2.53887 2.92303 2.82657V27.3693C2.92303 27.8936 3.45677 28.2329 3.94134 28.0328Z" fill="#DADFE7"/>
<path d="M22.52 28.4823C28.3892 25.7204 35.1342 25.5706 41.0984 28.0328C41.583 28.2329 42.1167 27.8936 42.1167 27.3693V2.82657C42.1167 2.53887 41.9484 2.27296 41.6857 2.15583C35.5798 -0.5654 28.5826 -0.499623 22.52 2.35325V28.4823Z" fill="#E8EBF0"/>
<path d="M25.4231 23.7423C25.1141 23.7423 24.8277 23.5438 24.7306 23.2338C24.6108 22.8514 24.8234 22.4438 25.2055 22.3237C25.9398 22.093 26.6954 21.8959 27.4516 21.7375C27.8429 21.6553 28.2285 21.9058 28.3107 22.299C28.3929 22.6913 28.1421 23.0758 27.7493 23.158C27.0391 23.3069 26.3296 23.4923 25.6407 23.7087C25.5684 23.7313 25.4947 23.7423 25.4231 23.7423Z" fill="#CAC9CF"/>
<path d="M39.2133 23.7421C39.1417 23.7421 39.068 23.7311 38.9958 23.7085C36.257 22.8484 33.4182 22.5262 30.5611 22.7537C30.1556 22.7828 29.8119 22.4869 29.78 22.0875C29.7488 21.6877 30.0466 21.3382 30.4463 21.3064C33.4955 21.0668 36.515 21.4077 39.431 22.3235C39.813 22.4436 40.0257 22.8512 39.9058 23.2336C39.8087 23.5437 39.5223 23.7421 39.2133 23.7421Z" fill="#CAC9CF"/>
<path d="M39.2136 20.8304C39.1421 20.8304 39.0683 20.8194 38.9961 20.7967C34.6271 19.4245 30.01 19.4245 25.641 20.7967C25.2568 20.9168 24.8499 20.7039 24.7309 20.3219C24.6111 19.9395 24.8237 19.5319 25.2058 19.4118C29.8597 17.9503 34.7773 17.9503 39.4313 19.4118C39.8133 19.5319 40.026 19.9395 39.9061 20.3219C39.809 20.632 39.5227 20.8304 39.2136 20.8304Z" fill="#CAC9CF"/>
<path d="M25.4231 17.9358C25.1141 17.9358 24.8277 17.7373 24.7306 17.4273C24.6108 17.0448 24.8234 16.6373 25.2055 16.5172C27.8769 15.6787 30.649 15.3218 33.4416 15.453C33.8414 15.4721 34.1511 15.812 34.132 16.2124C34.1135 16.6136 33.7789 16.9198 33.3721 16.9031C30.7517 16.7795 28.1483 17.1147 25.6406 17.9022C25.5684 17.9248 25.4947 17.9358 25.4231 17.9358Z" fill="#CAC9CF"/>
<path d="M39.2134 17.9359C39.1418 17.9359 39.068 17.9249 38.9958 17.9022C38.0787 17.6141 37.1324 17.383 36.1833 17.2158C35.7885 17.1459 35.5248 16.7696 35.5951 16.3747C35.6646 15.9803 36.0416 15.7163 36.4357 15.7861C37.4465 15.9644 38.4537 16.2103 39.4311 16.5173C39.8132 16.6374 40.0258 17.0449 39.906 17.4273C39.8087 17.7374 39.5224 17.9359 39.2134 17.9359Z" fill="#CAC9CF"/>
<path d="M39.2136 15.024C39.1421 15.024 39.0683 15.013 38.9961 14.9903C34.6271 13.6181 30.01 13.6181 25.641 14.9903C25.2568 15.1097 24.8499 14.8972 24.7309 14.5155C24.6111 14.1331 24.8237 13.7255 25.2058 13.6054C29.8597 12.1439 34.7773 12.1439 39.4313 13.6054C39.8133 13.7255 40.026 14.1331 39.9061 14.5155C39.809 14.8256 39.5227 15.024 39.2136 15.024Z" fill="#CAC9CF"/>
<path d="M25.4231 12.1209C25.1141 12.1209 24.8277 11.9224 24.7306 11.6124C24.6108 11.2299 24.8234 10.8224 25.2055 10.7023C26.6656 10.2437 28.1767 9.92549 29.6985 9.75674C30.1025 9.7082 30.4562 10.0002 30.5001 10.3978C30.544 10.7962 30.257 11.1552 29.8587 11.1991C28.4305 11.3579 27.0107 11.6566 25.6407 12.0872C25.5684 12.1098 25.4947 12.1209 25.4231 12.1209Z" fill="#CAC9CF"/>
<path d="M39.2134 12.1208C39.1418 12.1208 39.068 12.1099 38.9958 12.0872C36.9467 11.4432 34.8189 11.0995 32.6705 11.0658C32.2693 11.0594 31.9497 10.7295 31.956 10.3287C31.9624 9.92819 32.3126 9.59078 32.6932 9.61419C34.9812 9.6503 37.2486 10.0165 39.431 10.7022C39.8131 10.8223 40.0257 11.2298 39.9059 11.6122C39.808 11.9223 39.5224 12.1208 39.2134 12.1208Z" fill="#CAC9CF"/>
<path d="M25.4231 9.22609C25.1141 9.22609 24.8277 9.02758 24.7306 8.71757C24.6108 8.33516 24.8234 7.92763 25.2055 7.8075C28.3681 6.81415 31.6413 6.49516 34.9386 6.86196C35.337 6.90587 35.624 7.26487 35.58 7.66325C35.5361 8.06126 35.1846 8.35612 34.7784 8.30432C31.6852 7.96128 28.6098 8.25932 25.6406 9.19243C25.5684 9.21511 25.4947 9.22609 25.4231 9.22609Z" fill="#CAC9CF"/>
<path d="M39.2135 9.22621C39.1419 9.22621 39.0681 9.21523 38.9959 9.19255C38.5352 9.04757 38.0624 8.91611 37.5897 8.80098C37.2005 8.70599 36.9617 8.31333 37.0567 7.92384C37.1516 7.53436 37.5415 7.29621 37.9342 7.39047C38.4367 7.51313 38.9399 7.65339 39.4311 7.80763C39.8132 7.92775 40.0258 8.33529 39.906 8.71769C39.8088 9.02779 39.5225 9.22621 39.2135 9.22621Z" fill="#CAC9CF"/>
<path d="M25.4232 6.31456C25.1141 6.31456 24.8277 6.11578 24.7306 5.80568C24.6109 5.42291 24.8235 5.01573 25.2062 4.89597C25.7052 4.73929 26.2085 4.5993 26.7025 4.47918C27.0895 4.38383 27.4843 4.62343 27.5793 5.01292C27.6742 5.4024 27.4346 5.79506 27.0455 5.88969C26.582 6.00237 26.1092 6.13383 25.64 6.2809C25.5677 6.30349 25.4947 6.31456 25.4232 6.31456Z" fill="#CAC9CF"/>
<path d="M39.2132 6.31447C39.1416 6.31447 39.0678 6.3035 38.9956 6.28081C36.0258 5.3477 32.9517 5.05003 29.8578 5.3927C29.4566 5.4416 29.1 5.14919 29.0561 4.75163C29.0122 4.35325 29.2993 3.99425 29.6976 3.95034C32.9935 3.58353 36.2674 3.90253 39.4307 4.89588C39.8128 5.01601 40.0254 5.42355 39.9056 5.80596C39.8085 6.11597 39.5222 6.31447 39.2132 6.31447Z" fill="#CAC9CF"/>
<path d="M5.82642 23.7423C5.51741 23.7423 5.23108 23.5438 5.13391 23.2338C5.01416 22.8514 5.22673 22.4438 5.60877 22.3237C6.34311 22.093 7.09867 21.8959 7.85496 21.7375C8.2469 21.6553 8.63185 21.9058 8.71405 22.299C8.79624 22.6913 8.54539 23.0758 8.15263 23.158C7.44243 23.3069 6.73296 23.4923 6.04398 23.7087C5.97168 23.7313 5.89801 23.7423 5.82642 23.7423Z" fill="#B4B6BC"/>
<path d="M19.6166 23.7421C19.5451 23.7421 19.4713 23.7311 19.3991 23.7085C16.661 22.8484 13.8215 22.5262 10.9644 22.7537C10.5533 22.7828 10.2152 22.4869 10.1833 22.0875C10.1521 21.6877 10.4499 21.3382 10.8496 21.3064C13.8988 21.0668 16.9176 21.4077 19.8343 22.3235C20.2163 22.4436 20.429 22.8512 20.3092 23.2336C20.212 23.5437 19.9257 23.7421 19.6166 23.7421Z" fill="#B4B6BC"/>
<path d="M19.6167 20.8304C19.5451 20.8304 19.4713 20.8194 19.3991 20.7967C15.0301 19.4245 10.413 19.4245 6.04398 20.7967C5.6584 20.9168 5.25295 20.7039 5.13391 20.3219C5.01416 19.9395 5.22673 19.5319 5.60877 19.4118C10.2627 17.9503 15.1803 17.9503 19.8343 19.4118C20.2164 19.5319 20.429 19.9395 20.3092 20.3219C20.212 20.632 19.9257 20.8304 19.6167 20.8304Z" fill="#B4B6BC"/>
<path d="M5.82642 17.9358C5.51741 17.9358 5.23108 17.7373 5.13391 17.4273C5.01416 17.0448 5.22673 16.6373 5.60877 16.5172C8.28019 15.6787 11.0544 15.3218 13.8449 15.453C14.2447 15.4721 14.5544 15.812 14.5353 16.2124C14.5161 16.6136 14.178 16.9198 13.7755 16.9031C11.1543 16.7795 8.55164 17.1147 6.04389 17.9022C5.97168 17.9248 5.89801 17.9358 5.82642 17.9358Z" fill="#B4B6BC"/>
<path d="M19.6163 17.9359C19.5447 17.9359 19.4709 17.9249 19.3987 17.9022C18.4816 17.6141 17.5353 17.383 16.5862 17.2158C16.1914 17.1459 15.9277 16.7696 15.998 16.3747C16.0667 15.9803 16.4452 15.7163 16.8386 15.7861C17.8494 15.9644 18.8565 16.2103 19.834 16.5173C20.2161 16.6374 20.4287 17.0449 20.3089 17.4273C20.2116 17.7374 19.9253 17.9359 19.6163 17.9359Z" fill="#B4B6BC"/>
<path d="M5.82642 15.0239C5.51741 15.0239 5.23108 14.8254 5.13391 14.5154C5.01416 14.1329 5.22673 13.7254 5.60877 13.6053C9.73471 12.31 14.137 12.1657 18.3366 13.1885C18.7265 13.2835 18.9653 13.6761 18.8703 14.0656C18.7754 14.4547 18.3806 14.6918 17.9936 14.599C14.0498 13.6375 9.91752 13.7739 6.04398 14.9903C5.97168 15.0129 5.89801 15.0239 5.82642 15.0239Z" fill="#B4B6BC"/>
<path d="M5.82642 12.1209C5.51741 12.1209 5.23108 11.9224 5.13391 11.6124C5.01416 11.2299 5.22673 10.8224 5.60877 10.7023C7.06891 10.2437 8.58004 9.92549 10.1018 9.75674C10.5022 9.7082 10.8595 10.0002 10.9034 10.3978C10.9473 10.7962 10.6603 11.1552 10.262 11.1991C8.8338 11.3579 7.41403 11.6566 6.04398 12.0872C5.97168 12.1098 5.89801 12.1209 5.82642 12.1209Z" fill="#B4B6BC"/>
<path d="M18.166 11.7165C18.1093 11.7165 18.0512 11.7098 17.9938 11.6959C16.3849 11.304 14.7292 11.0917 13.0741 11.0658C12.6729 11.0594 12.3532 10.7295 12.3596 10.3287C12.3659 9.92819 12.6792 9.59078 13.0967 9.61419C14.8602 9.64222 16.623 9.86795 18.3369 10.2854C18.7267 10.3804 18.9656 10.773 18.8706 11.1625C18.7897 11.4943 18.4927 11.7165 18.166 11.7165Z" fill="#B4B6BC"/>
<path d="M5.82642 9.22609C5.51741 9.22609 5.23108 9.02758 5.13391 8.71757C5.01416 8.33516 5.22673 7.92763 5.60877 7.8075C8.77211 6.81415 12.0453 6.49516 15.3419 6.86196C15.7403 6.90587 16.0274 7.26487 15.9834 7.66325C15.9394 8.06126 15.585 8.35612 15.1817 8.30432C12.0885 7.96128 9.01308 8.25932 6.04389 9.19243C5.97168 9.21511 5.89801 9.22609 5.82642 9.22609Z" fill="#B4B6BC"/>
<path d="M5.82624 6.31456C5.51722 6.31456 5.23089 6.11578 5.13373 5.80568C5.01397 5.42291 5.22654 5.01573 5.60931 4.89597C6.1083 4.73929 6.61156 4.5993 7.10556 4.47918C7.49187 4.38383 7.88735 4.62343 7.98234 5.01292C8.07733 5.4024 7.83772 5.79506 7.4486 5.88969C6.98508 6.00237 6.51231 6.13383 6.04307 6.2809C5.97076 6.30349 5.89782 6.31456 5.82624 6.31456Z" fill="#B4B6BC"/>
<path d="M18.1658 5.90966C18.1091 5.90966 18.0509 5.90295 17.9936 5.88907C15.4568 5.27132 12.8555 5.10511 10.2613 5.39253C9.86291 5.44143 9.50355 5.14974 9.45964 4.75146C9.41572 4.35308 9.70278 3.99408 10.1011 3.95017C12.8632 3.64252 15.6353 3.82116 18.3365 4.47856C18.7264 4.57355 18.9652 4.96621 18.8703 5.35569C18.7894 5.68739 18.4925 5.90966 18.1658 5.90966Z" fill="#B4B6BC"/>
<path d="M18.165 13.6028C18.165 13.8925 18.488 14.0655 18.7292 13.9047L20.3424 12.8292L21.9556 13.9047C22.1967 14.0655 22.5198 13.8926 22.5198 13.6028V2.41355C22.5198 2.12686 22.3526 1.86221 22.0906 1.74572C20.9604 1.2431 19.7989 0.840004 18.6192 0.52836C18.3891 0.467574 18.1629 0.645578 18.163 0.883643L18.165 13.6028Z" fill="#2D0D6C"/>
</svg>
