<svg width="80" height="53" viewBox="0 0 80 53" fill="none" xmlns="http://www.w3.org/2000/svg">
<g clip-path="url(#clip0_10_39)">
<path d="M32.1209 53.0002L65.1706 42.8226L57.9067 36.6777L30.9519 46.4168L32.1209 53.0002Z" fill="#2D0D6C"/>
<path d="M62.7414 36.8289V42.5908L32.593 51.4375V46.1882L62.7414 36.8289Z" fill="#ECEFF2"/>
<path opacity="0.38" d="M32.593 47.2443V46.1882L62.7414 36.9802V39.8859L32.593 47.2443Z" fill="#D3DBE0"/>
<path d="M8.50281 15.7667L28.961 43.4092L32.5929 46.1882L63.6455 36.7054L39.5706 6.99097L8.50281 15.7667Z" fill="#47238C"/>
<path d="M32.121 53.0002L32.5929 46.1884L29.923 42.9924L24.8663 45.1941L32.121 53.0002Z" fill="#2D0D6C"/>
<path d="M29.9231 48.5783L30.1423 46.6082L27.5911 44.0051L26.1937 44.6165L29.9231 48.5783Z" fill="#47238C"/>
<path d="M62.7415 39.1757C62.7658 39.2621 56.3604 41.3186 48.4329 43.7704C40.5023 46.2252 34.0574 48.1428 34.03 48.0594C34.0056 47.9761 40.411 45.9165 48.3385 43.4647C56.2691 41.0098 62.7171 39.0892 62.7415 39.1757Z" fill="#A0927F"/>
<path d="M62.7414 41.0532C62.7445 41.0625 62.6471 41.0995 62.4583 41.1551C62.2696 41.2138 61.9925 41.291 61.6302 41.3898C60.9118 41.5874 59.8675 41.8622 58.5737 42.1957C55.9768 42.8596 52.4149 43.7674 48.4755 44.7741C44.533 45.7869 40.9742 46.738 38.4047 47.4513C37.1291 47.8064 36.094 48.0935 35.3603 48.2973C35.0011 48.3961 34.721 48.4702 34.5292 48.5197C34.3374 48.566 34.237 48.5876 34.2339 48.5752C34.2309 48.5629 34.3253 48.5227 34.511 48.4579C34.6967 48.39 34.9707 48.2973 35.3238 48.18C36.0332 47.9422 37.0622 47.618 38.3408 47.2351C40.8981 46.4662 44.4508 45.4781 48.3963 44.4622C52.3388 43.4494 55.922 42.5848 58.5189 41.9734C59.8158 41.6677 60.8691 41.4268 61.5968 41.2663C61.9621 41.186 62.2452 41.1273 62.437 41.0903C62.6379 41.0594 62.7414 41.0439 62.7414 41.0532Z" fill="#A0927F"/>
<path d="M0 21.6151L14.5856 50.0512L40.5693 38.7218L41.5952 41.0346L55.3862 36.9895L53.5627 34.2136L80 35.1399L56.8658 8.43921L0 21.6151Z" fill="#FFDE59"/>
<path d="M51.9097 35.5999L50.2566 33.0555C50.2566 33.0555 68.261 29.1247 79.4308 31.3202C79.4308 31.3202 75.8994 24.3848 71.1106 23.5758C66.3248 22.7699 4.32921 14.6797 4.32921 14.6797L1.70801 15.7203L16.6376 42.5383C16.6376 42.5383 35.7837 34.2166 44.2166 34.3308L43.6473 37.7985L51.9097 35.5999Z" fill="#ACB8BF"/>
<path d="M77.2661 26.0092C77.2661 26.0092 58.9177 24.6227 46.6093 33.7535L55.8398 4.73999H59.9436L77.2661 26.0092Z" fill="#E3E8EC"/>
<path d="M2.5086 12.5984C2.04281 12.8084 18.4641 36.9864 18.4641 36.9864C18.4641 36.9864 37.1535 30.051 46.6124 33.7503L35.3117 12.5984C35.3087 12.5984 14.132 7.39849 2.5086 12.5984Z" fill="#D3DBE0"/>
<path d="M5.12677 9.70833L19.828 32.1324C19.828 32.1324 40.5694 26.006 46.6094 34.2136L33.96 10.7489C33.96 10.7489 21.198 3.23618 5.12677 9.70833Z" fill="#E3E8EC"/>
<path d="M6.4968 3.8137L21.539 26.5867L23.9319 26.0092C23.9319 26.0092 36.697 18.4965 46.1528 33.0588L33.9601 10.0574C33.9601 10.0574 26.2121 -3.00429 6.4968 3.8137Z" fill="#ECEFF2"/>
<path d="M54.3604 5.51537e-05C54.3604 5.51537e-05 37.9513 -0.114195 33.9601 10.0572L46.6094 33.7534C46.6094 33.7534 55.84 16.5294 69.8563 20.5775L54.3604 5.51537e-05Z" fill="#ECEFF2"/>
<path d="M1.70789 21.22L15.5933 48.0905L40.5693 36.9897L42.1706 39.7039L54.5521 35.7236L55.3863 36.9897L41.5953 41.0348L40.5693 38.722L14.5856 50.0513L0 21.6152L1.70789 21.22Z" fill="#D2AD15"/>
<path d="M54.1442 35.0998L80 36.4307V35.14L53.5627 34.2136L54.1442 35.0998Z" fill="#B26539"/>
<path d="M38.4048 14.4235C38.3804 14.4204 38.4139 14.1364 38.5478 13.6392C38.7001 13.1482 38.9984 12.4535 39.5464 11.7093C40.0883 10.9651 40.8768 10.1932 41.854 9.48295C42.8282 8.76965 43.9821 8.1212 45.2424 7.55612C46.4998 6.98796 47.7388 6.54948 48.8804 6.20364C50.019 5.8578 51.0602 5.59842 51.94 5.41315C52.8199 5.22479 53.5383 5.10745 54.0346 5.04261C54.5339 4.97776 54.8109 4.96541 54.817 4.9932C54.8261 5.05187 53.7393 5.26493 52.007 5.70959C50.2809 6.16659 47.8971 6.83665 45.4129 7.95137C42.9287 9.04447 40.8798 10.4958 39.7808 11.8946C39.2267 12.5862 38.898 13.2347 38.7031 13.6948C38.5265 14.1641 38.4383 14.4328 38.4048 14.4235Z" fill="#B8AC98"/>
<path d="M39.7504 16.4955C39.7261 16.4925 39.7595 16.2084 39.8935 15.7112C40.0457 15.2203 40.3441 14.5255 40.892 13.7813C41.4339 13.0371 42.2224 12.2652 43.1997 11.555C44.1739 10.8417 45.3277 10.1932 46.5881 9.62815C47.8454 9.05998 49.0844 8.6215 50.2261 8.27566C51.3647 7.92982 52.4059 7.67044 53.2857 7.48517C54.1655 7.29681 54.884 7.17948 55.3802 7.11463C55.8795 7.04979 56.1565 7.03743 56.1626 7.06522C56.1717 7.12389 55.0849 7.33696 53.3527 7.78161C51.6265 8.23861 49.2428 8.90559 46.7585 10.0234C44.2743 11.1165 42.2255 12.5678 41.1265 13.9666C40.5724 14.6583 40.2436 15.3067 40.0488 15.7668C39.8722 16.2362 39.7839 16.5048 39.7504 16.4955Z" fill="#B8AC98"/>
<path d="M41.3425 19.1354C41.3182 19.1323 41.3517 18.8483 41.4856 18.3511C41.6378 17.8601 41.9362 17.1654 42.4842 16.4212C43.0261 15.677 43.8146 14.9051 44.7918 14.1949C45.766 13.4816 46.9198 12.8331 48.1802 12.268C49.4375 11.6999 50.6766 11.2614 51.8182 10.9156C52.9568 10.5697 53.998 10.3103 54.8778 10.1251C55.7576 9.93979 56.4761 9.81937 56.9723 9.75452C57.4716 9.68968 57.7487 9.67733 57.7547 9.70512C57.7639 9.76379 56.677 9.97685 54.9448 10.4215C53.2186 10.8785 50.8349 11.5486 48.3507 12.6633C45.8665 13.7564 43.8176 15.2077 42.7186 16.6065C42.1645 17.2982 41.8357 17.9466 41.6409 18.4067C41.4643 18.873 41.376 19.1447 41.3425 19.1354Z" fill="#B8AC98"/>
<path d="M43.2331 21.5905C43.2088 21.5874 43.2423 21.3033 43.3762 20.8062C43.5284 20.3152 43.8268 19.6205 44.3748 18.8763C44.9167 18.1321 45.7052 17.3601 46.6824 16.6499C47.6566 15.9366 48.8104 15.2882 50.0708 14.7231C51.3281 14.155 52.5672 13.7165 53.7088 13.3706C54.8474 13.0248 55.8886 12.7654 56.7684 12.5801C57.6482 12.3918 58.3667 12.2744 58.8629 12.2096C59.3622 12.1448 59.6392 12.1324 59.6453 12.1602C59.6545 12.2189 58.5676 12.4319 56.8354 12.8766C55.1092 13.3336 52.7255 14.0006 50.2413 15.1184C47.7571 16.2115 45.7082 17.6628 44.6092 19.0616C44.0551 19.7532 43.7263 20.4017 43.5315 20.8618C43.3519 21.3311 43.2666 21.5998 43.2331 21.5905Z" fill="#B8AC98"/>
<path d="M45.355 24.4157C45.3306 24.4126 45.3641 24.1285 45.4981 23.6314C45.6503 23.1404 45.9486 22.4457 46.4966 21.7015C47.0385 20.9573 47.827 20.1853 48.8043 19.4751C49.7785 18.7618 50.9323 18.1134 52.1927 17.5483C53.45 16.9801 54.689 16.5417 55.8307 16.1958C56.9693 15.85 58.0104 15.5906 58.8903 15.4053C59.7701 15.2201 60.4886 15.0996 60.9848 15.0348C61.4841 14.97 61.7611 14.9576 61.7672 14.9854C61.7763 15.0441 60.6895 15.2571 58.9572 15.7018C57.2311 16.1588 54.8473 16.8288 52.3631 17.9436C49.8789 19.0367 47.8301 20.488 46.731 21.8867C46.177 22.5784 45.8482 23.2269 45.6533 23.687C45.4768 24.1532 45.3885 24.4219 45.355 24.4157Z" fill="#B8AC98"/>
<path d="M35.403 15.01C35.3604 15.078 34.5019 14.5006 32.9919 13.8274C32.8031 13.7471 32.6052 13.6607 32.3982 13.5711C32.1912 13.4846 31.9689 13.4136 31.7406 13.3272C31.29 13.1481 30.7908 13.0122 30.2702 12.8578C29.2199 12.5799 28.0447 12.3514 26.7966 12.2402C25.5453 12.1414 24.3489 12.1723 23.2681 12.268C22.7293 12.336 22.2148 12.3854 21.7399 12.4873C21.5024 12.5336 21.271 12.5645 21.0518 12.617C20.8326 12.6695 20.6256 12.7219 20.4247 12.7714C18.8264 13.182 17.8857 13.6082 17.8552 13.5341C17.8431 13.5063 18.0683 13.3827 18.4915 13.1789C18.5981 13.1295 18.7168 13.074 18.8447 13.0122C18.9756 12.9566 19.1217 12.9041 19.277 12.8455C19.5905 12.7312 19.9406 12.583 20.3455 12.478C20.5465 12.4193 20.7596 12.3576 20.9788 12.2958C21.198 12.2341 21.4354 12.1939 21.6759 12.1383C22.1569 12.021 22.6806 11.9562 23.2286 11.8759C24.3306 11.7554 25.5545 11.7122 26.8331 11.8141C28.1087 11.9284 29.3112 12.1754 30.3767 12.4811C30.9065 12.6509 31.4118 12.8022 31.8654 12.9999C32.0938 13.0956 32.319 13.1728 32.5261 13.2716C32.7331 13.3704 32.931 13.4661 33.1197 13.5588C33.5033 13.7317 33.826 13.9355 34.1152 14.1022C34.2583 14.1887 34.3953 14.2628 34.514 14.34C34.6297 14.4203 34.7363 14.4944 34.8337 14.5623C35.2142 14.8248 35.4182 14.9853 35.403 15.01Z" fill="#B8AC98"/>
<path d="M36.1459 16.8227C36.1215 16.8845 35.2112 16.5108 33.7256 15.9766C32.243 15.4486 30.1606 14.7662 27.7891 14.4945C25.4175 14.2227 23.2408 14.5192 21.7551 14.9916C20.2573 15.4548 19.4262 15.9952 19.3866 15.9272C19.3714 15.9056 19.5662 15.7481 19.9468 15.5104C20.3273 15.2726 20.9057 14.9762 21.6607 14.7014C23.1616 14.1394 25.4023 13.7843 27.8378 14.0622C30.2702 14.3401 32.3678 15.0843 33.8352 15.6895C35.3026 16.304 36.1672 16.7733 36.1459 16.8227Z" fill="#B8AC98"/>
<path d="M37.4824 19.3054C37.4429 19.3671 36.6361 18.8391 35.2144 18.2462C33.8018 17.6534 31.7377 17.0512 29.4027 16.9956C27.0676 16.937 24.9762 17.4341 23.5362 17.9591C22.0901 18.4809 21.2559 18.9688 21.2224 18.9039C21.2072 18.8792 21.4021 18.731 21.7735 18.5025C22.1449 18.274 22.7081 17.9745 23.4296 17.675C24.8666 17.0667 27.0098 16.5047 29.4118 16.5664C31.8138 16.6251 33.9266 17.2921 35.3331 17.9683C36.0394 18.3049 36.5874 18.6291 36.9466 18.8792C37.315 19.1232 37.4977 19.2807 37.4824 19.3054Z" fill="#B8AC98"/>
<path d="M33.2294 12.2065C33.1898 12.2683 32.3526 11.7094 30.9187 10.9806C30.2002 10.6224 29.3295 10.2241 28.3249 9.90296C27.3233 9.57874 26.1847 9.33171 24.9761 9.28848C22.5467 9.19584 20.37 9.78871 18.8234 10.2025C17.2708 10.6348 16.3118 10.922 16.2905 10.8602C16.2753 10.8077 17.1977 10.4217 18.7382 9.90914C19.5084 9.65902 20.44 9.3842 21.4964 9.16496C22.5528 8.95499 23.7401 8.80368 24.9944 8.85618C26.2486 8.9025 27.4268 9.16805 28.4497 9.52315C29.4757 9.87517 30.3494 10.3106 31.0618 10.7089C31.7742 11.1103 32.3191 11.4778 32.6875 11.7464C33.0559 12.0151 33.2476 12.1818 33.2294 12.2065Z" fill="#B8AC98"/>
<path d="M31.2779 9.14954C31.2414 9.21439 30.3981 8.71415 28.9551 8.09349C28.7724 8.0163 28.5837 7.9391 28.3858 7.85573C28.1879 7.77544 27.9748 7.70442 27.7617 7.62414C27.3324 7.4574 26.8605 7.31844 26.3674 7.16405C25.3718 6.88305 24.2637 6.62985 23.0825 6.4631C21.9013 6.30871 20.7657 6.25313 19.7306 6.25931C19.2131 6.27783 18.7229 6.28092 18.2663 6.33033C18.038 6.35194 17.8157 6.3612 17.6026 6.38591C17.3925 6.4137 17.1886 6.4384 16.9937 6.4631C15.4411 6.67308 14.4974 6.92937 14.4791 6.85835C14.47 6.83056 14.6983 6.74101 15.1214 6.60515C15.3315 6.53412 15.5933 6.45693 15.9008 6.38591C16.2083 6.31489 16.5553 6.21916 16.9481 6.16049C17.1429 6.12653 17.3499 6.09256 17.563 6.05551C17.7761 6.02154 18.0014 6.00301 18.2358 5.97522C18.6986 5.91347 19.1979 5.89185 19.7245 5.86406C20.7748 5.83627 21.9348 5.8795 23.1403 6.03698C24.3428 6.20681 25.4723 6.47546 26.48 6.78424C26.9793 6.95407 27.4572 7.10538 27.8865 7.29065C28.1026 7.3802 28.3158 7.4574 28.5136 7.55003C28.7115 7.64267 28.9003 7.73221 29.0799 7.81559C29.4422 7.97924 29.7557 8.16143 30.0328 8.31273C30.3129 8.46095 30.5412 8.60608 30.7269 8.73268C31.0953 8.97662 31.2931 9.12484 31.2779 9.14954Z" fill="#B8AC98"/>
<path d="M53.1853 3.36264C53.1913 3.43675 52.1623 3.54482 50.5397 3.90919C50.3357 3.95551 50.1257 4.00491 49.9034 4.05741C49.6842 4.1099 49.4559 4.18092 49.2215 4.24268C48.7466 4.36311 48.2534 4.53294 47.7297 4.69968C46.6916 5.05787 45.5713 5.5087 44.4296 6.06452C43.2941 6.62959 42.2529 7.25025 41.3335 7.85547C40.8799 8.17044 40.4446 8.46069 40.0579 8.7633C39.8631 8.91152 39.6683 9.05048 39.4917 9.19252C39.3151 9.33765 39.1477 9.4766 38.9833 9.60629C37.6985 10.6747 36.977 11.4281 36.9253 11.3787C36.904 11.3571 37.0653 11.1533 37.3758 10.7951C37.5281 10.616 37.7229 10.3999 37.9634 10.1652C38.2009 9.93051 38.4657 9.64952 38.7854 9.3747C38.9437 9.23266 39.1081 9.08753 39.2816 8.93314C39.4551 8.78183 39.6469 8.63361 39.8387 8.47613C40.2193 8.155 40.6546 7.8493 41.1082 7.52199C42.0307 6.88897 43.084 6.24979 44.2379 5.67545C45.3978 5.11037 46.5424 4.66572 47.6019 4.32296C48.1377 4.16548 48.6431 4.00491 49.1271 3.89993C49.3676 3.84435 49.599 3.7795 49.8243 3.73627C50.0496 3.69304 50.2657 3.6529 50.4727 3.61276C50.8837 3.5263 51.2643 3.48924 51.5931 3.44292C51.9249 3.39661 52.2111 3.37499 52.4455 3.36264C52.9234 3.33485 53.1822 3.33485 53.1853 3.36264Z" fill="#B8AC98"/>
</g>
<defs>
<clipPath id="clip0_10_39">
<rect width="80" height="53" fill="white"/>
</clipPath>
</defs>
</svg>
